<mxfile host="Electron" modified="2023-11-11T09:28:16.372Z" agent="Mozilla/5.0 (Macintosh; Intel Mac OS X 10_15_7) AppleWebKit/537.36 (KHTML, like Gecko) draw.io/22.0.3 Chrome/114.0.5735.289 Electron/25.8.4 Safari/537.36" etag="gx3_LVqR0H0oxd8lBZAk" version="22.0.3" type="device">
  <diagram name="第 1 页" id="5X5ZJU5gWKgMUZHizEOZ">
    <mxGraphModel dx="1114" dy="713" grid="1" gridSize="10" guides="1" tooltips="1" connect="1" arrows="1" fold="1" page="1" pageScale="1" pageWidth="827" pageHeight="1169" math="0" shadow="0">
      <root>
        <mxCell id="0" />
        <mxCell id="1" parent="0" />
        <mxCell id="gW-XDCFH4Q2cIVFF_wgK-3" value="" style="edgeStyle=orthogonalEdgeStyle;rounded=0;orthogonalLoop=1;jettySize=auto;html=1;endArrow=block;endFill=0;strokeColor=#AB3B3A;shadow=1;fontFamily=OpenDyslexic;" edge="1" parent="1" source="gW-XDCFH4Q2cIVFF_wgK-1" target="gW-XDCFH4Q2cIVFF_wgK-2">
          <mxGeometry relative="1" as="geometry" />
        </mxCell>
        <mxCell id="gW-XDCFH4Q2cIVFF_wgK-1" value="&lt;font size=&quot;1&quot; face=&quot;Lucida Console&quot;&gt;&lt;b style=&quot;font-size: 14px;&quot;&gt;复杂&lt;/b&gt;&lt;/font&gt;" style="rounded=0;whiteSpace=wrap;html=1;strokeColor=none;fillColor=#AB3B3A;glass=0;shadow=1;fontColor=#F9F7F7;fontFamily=OpenDyslexic;" vertex="1" parent="1">
          <mxGeometry y="360" width="80" height="40" as="geometry" />
        </mxCell>
        <mxCell id="gW-XDCFH4Q2cIVFF_wgK-5" value="" style="edgeStyle=orthogonalEdgeStyle;rounded=0;orthogonalLoop=1;jettySize=auto;html=1;endArrow=block;endFill=0;strokeColor=#AB3B3A;shadow=1;fontFamily=OpenDyslexic;" edge="1" parent="1" source="gW-XDCFH4Q2cIVFF_wgK-2" target="gW-XDCFH4Q2cIVFF_wgK-4">
          <mxGeometry relative="1" as="geometry" />
        </mxCell>
        <mxCell id="gW-XDCFH4Q2cIVFF_wgK-2" value="&lt;font size=&quot;1&quot; face=&quot;Lucida Console&quot;&gt;&lt;b style=&quot;font-size: 14px;&quot;&gt;简单&lt;/b&gt;&lt;/font&gt;" style="rounded=0;whiteSpace=wrap;html=1;strokeColor=none;fillColor=#AB3B3A;glass=0;shadow=1;fontColor=#F9F7F7;fontFamily=OpenDyslexic;" vertex="1" parent="1">
          <mxGeometry x="200" y="360" width="80" height="40" as="geometry" />
        </mxCell>
        <mxCell id="gW-XDCFH4Q2cIVFF_wgK-7" value="" style="edgeStyle=orthogonalEdgeStyle;rounded=0;orthogonalLoop=1;jettySize=auto;html=1;endArrow=block;endFill=0;strokeColor=#AB3B3A;shadow=1;fontFamily=OpenDyslexic;" edge="1" parent="1" source="gW-XDCFH4Q2cIVFF_wgK-4" target="gW-XDCFH4Q2cIVFF_wgK-6">
          <mxGeometry relative="1" as="geometry" />
        </mxCell>
        <mxCell id="gW-XDCFH4Q2cIVFF_wgK-4" value="&lt;font size=&quot;1&quot; face=&quot;Lucida Console&quot;&gt;&lt;b style=&quot;font-size: 14px;&quot;&gt;标准&lt;/b&gt;&lt;/font&gt;" style="rounded=0;whiteSpace=wrap;html=1;strokeColor=none;fillColor=#AB3B3A;glass=0;shadow=1;fontColor=#F9F7F7;fontFamily=OpenDyslexic;" vertex="1" parent="1">
          <mxGeometry x="360" y="360" width="80" height="40" as="geometry" />
        </mxCell>
        <mxCell id="gW-XDCFH4Q2cIVFF_wgK-9" value="" style="edgeStyle=orthogonalEdgeStyle;rounded=0;orthogonalLoop=1;jettySize=auto;html=1;endArrow=block;endFill=0;strokeColor=#60373E;shadow=1;fontFamily=OpenDyslexic;" edge="1" parent="1" source="gW-XDCFH4Q2cIVFF_wgK-6" target="gW-XDCFH4Q2cIVFF_wgK-8">
          <mxGeometry relative="1" as="geometry" />
        </mxCell>
        <mxCell id="gW-XDCFH4Q2cIVFF_wgK-20" value="" style="edgeStyle=orthogonalEdgeStyle;rounded=0;orthogonalLoop=1;jettySize=auto;html=1;shadow=1;endArrow=block;endFill=0;strokeColor=#AB3B3A;entryX=0.5;entryY=0;entryDx=0;entryDy=0;exitX=0.5;exitY=0;exitDx=0;exitDy=0;fontFamily=OpenDyslexic;" edge="1" parent="1" source="gW-XDCFH4Q2cIVFF_wgK-6" target="gW-XDCFH4Q2cIVFF_wgK-1">
          <mxGeometry relative="1" as="geometry">
            <mxPoint x="560" y="280" as="targetPoint" />
            <Array as="points">
              <mxPoint x="560" y="310" />
              <mxPoint x="40" y="310" />
            </Array>
          </mxGeometry>
        </mxCell>
        <mxCell id="gW-XDCFH4Q2cIVFF_wgK-6" value="&lt;font size=&quot;1&quot; face=&quot;Lucida Console&quot;&gt;&lt;b style=&quot;font-size: 14px;&quot;&gt;流程&lt;/b&gt;&lt;/font&gt;" style="rounded=0;whiteSpace=wrap;html=1;strokeColor=none;fillColor=#AB3B3A;glass=0;shadow=1;fontColor=#F9F7F7;fontFamily=OpenDyslexic;" vertex="1" parent="1">
          <mxGeometry x="520" y="360" width="80" height="40" as="geometry" />
        </mxCell>
        <mxCell id="gW-XDCFH4Q2cIVFF_wgK-8" value="&lt;font size=&quot;1&quot; face=&quot;Lucida Console&quot;&gt;&lt;b style=&quot;font-size: 14px;&quot;&gt;自动化&lt;/b&gt;&lt;/font&gt;" style="rounded=0;whiteSpace=wrap;html=1;strokeColor=none;fillColor=#60373E;glass=0;shadow=1;fontColor=#F9F7F7;fontFamily=OpenDyslexic;" vertex="1" parent="1">
          <mxGeometry x="680" y="360" width="80" height="40" as="geometry" />
        </mxCell>
        <mxCell id="gW-XDCFH4Q2cIVFF_wgK-10" value="&lt;font face=&quot;Lucida Console&quot; style=&quot;font-size: 12px;&quot;&gt;抽丝剥茧&lt;/font&gt;" style="text;html=1;align=center;verticalAlign=middle;resizable=0;points=[];autosize=1;strokeColor=none;fillColor=none;fontStyle=0;fontFamily=OpenDyslexic;" vertex="1" parent="1">
          <mxGeometry x="100" y="380" width="70" height="30" as="geometry" />
        </mxCell>
        <mxCell id="gW-XDCFH4Q2cIVFF_wgK-12" value="&lt;font size=&quot;1&quot; face=&quot;Lucida Console&quot; style=&quot;&quot;&gt;&lt;span style=&quot;font-size: 12px;&quot;&gt;衡量&lt;/span&gt;&lt;/font&gt;" style="text;html=1;align=center;verticalAlign=middle;resizable=0;points=[];autosize=1;strokeColor=none;fillColor=none;fontFamily=OpenDyslexic;" vertex="1" parent="1">
          <mxGeometry x="290" y="350" width="50" height="30" as="geometry" />
        </mxCell>
        <mxCell id="gW-XDCFH4Q2cIVFF_wgK-13" value="划层次" style="text;html=1;align=center;verticalAlign=middle;resizable=0;points=[];autosize=1;strokeColor=none;fillColor=none;fontFamily=OpenDyslexic;" vertex="1" parent="1">
          <mxGeometry x="445" y="350" width="60" height="30" as="geometry" />
        </mxCell>
        <mxCell id="gW-XDCFH4Q2cIVFF_wgK-16" value="分步骤" style="text;html=1;align=center;verticalAlign=middle;resizable=0;points=[];autosize=1;strokeColor=none;fillColor=none;fontFamily=OpenDyslexic;" vertex="1" parent="1">
          <mxGeometry x="445" y="380" width="60" height="30" as="geometry" />
        </mxCell>
        <mxCell id="gW-XDCFH4Q2cIVFF_wgK-17" value="提效" style="text;html=1;align=center;verticalAlign=middle;resizable=0;points=[];autosize=1;strokeColor=none;fillColor=none;fontFamily=OpenDyslexic;" vertex="1" parent="1">
          <mxGeometry x="615" y="350" width="50" height="30" as="geometry" />
        </mxCell>
        <mxCell id="gW-XDCFH4Q2cIVFF_wgK-18" value="&lt;font face=&quot;Lucida Console&quot; style=&quot;font-size: 12px;&quot;&gt;实事求是 + 实践&lt;/font&gt;" style="text;html=1;align=center;verticalAlign=middle;resizable=0;points=[];autosize=1;strokeColor=none;fillColor=none;fontStyle=0;fontFamily=OpenDyslexic;" vertex="1" parent="1">
          <mxGeometry x="80" y="350" width="110" height="30" as="geometry" />
        </mxCell>
        <mxCell id="gW-XDCFH4Q2cIVFF_wgK-21" value="&lt;b&gt;&lt;font style=&quot;font-size: 16px;&quot;&gt;觅规律&lt;/font&gt;&lt;/b&gt;" style="text;html=1;align=center;verticalAlign=middle;resizable=0;points=[];autosize=1;strokeColor=none;fillColor=none;fontFamily=OpenDyslexic;" vertex="1" parent="1">
          <mxGeometry x="260" y="320" width="70" height="30" as="geometry" />
        </mxCell>
        <mxCell id="gW-XDCFH4Q2cIVFF_wgK-25" value="&lt;font face=&quot;Lucida Console&quot;&gt;好坏优缺&lt;/font&gt;" style="text;html=1;align=center;verticalAlign=middle;resizable=0;points=[];autosize=1;strokeColor=none;fillColor=none;fontFamily=OpenDyslexic;" vertex="1" parent="1">
          <mxGeometry x="280" y="380" width="70" height="30" as="geometry" />
        </mxCell>
      </root>
    </mxGraphModel>
  </diagram>
</mxfile>
